<?xml version="1.0" encoding="utf-8"?>
<!-- Generator: Adobe Illustrator 19.1.0, SVG Export Plug-In . SVG Version: 6.00 Build 0)  -->
<svg version="1.1" id="Layer_1" xmlns="http://www.w3.org/2000/svg" xmlns:xlink="http://www.w3.org/1999/xlink" x="0px" y="0px"
	 viewBox="0 0 178.1 60" style="enable-background:new 0 0 178.1 60;" xml:space="preserve">
<style type="text/css">
	.st0{fill:#231F20;}
	.st1{fill:#D71920;}
</style>
<g>
	<g>
		<path class="st0" d="M69.1,14.1h16.3v3.4h-6v16.8h-4.3V17.4h-6V14.1z"/>
		<path class="st0" d="M93.9,17.4h5.3c1.9,0,3,0.8,3,2.6c0,1.8-1.1,2.7-3,2.8h-5.3V17.4z M93.9,26.2h4.6c0,0,2.8,6.2,3.2,8h5.3
			l-4.1-8.3c2.9-0.7,3.6-4.2,3.6-6.8c0-4.1-4.6-5.2-8.4-5.1h-8.6v20.2h4.3V26.2z"/>
		<path class="st0" d="M112.4,14.1h14.5v3.4h-10.1v4.7h9.3v3.4h-9.3v5.4h10.4v3.4h-14.8V14.1z"/>
		<path class="st0" d="M144.5,34.2l-7.4-13.4l-0.1,0.1v13.4h-4V14.1h5.4l7.4,13.2l0.1-0.1V14.1h4v20.2H144.5z"/>
		<path class="st0" d="M160.5,17.6h2.2c5.1-0.1,5.9,3.4,5.9,6.6c0,3.2-0.8,6.8-5.9,6.7h-2.2V17.6z M156.2,34.2h6.9
			c6.3,0.1,10.2-3.1,10.2-10.1c0-7-3.9-10.1-10.2-10.1h-6.9V34.2z"/>
		<path class="st0" d="M82.6,50.8h-2.1V42l-2.2,8.8h-2.2L73.9,42l0,8.8h-2.1V39.6h3.4l2,7.6l2-7.6h3.4V50.8z"/>
		<path class="st0" d="M99.7,50.8h-2.3V39.6h2.3V50.8z"/>
		<path class="st0" d="M144.2,43.6c-0.1,0.3-0.4,0.5-0.7,0.6c-0.2,0.1-0.4,0.1-0.6,0.1c-0.3,0-0.6,0-1.1,0c-0.1,0-0.2,0-0.3,0h-1.7
			v-2.8h1.8c0.8,0,1.3,0,1.6,0c0.2,0,0.5,0.1,0.7,0.2c0.2,0.1,0.4,0.3,0.4,0.5c0.1,0.2,0.1,0.4,0.1,0.7
			C144.3,43.2,144.2,43.4,144.2,43.6z M144.4,46.2c0,0,0.5-0.1,0.7-0.2c0.5-0.2,1-0.6,1.3-1.1c0.3-0.5,0.4-1.4,0.4-2
			c0-0.6-0.2-1.2-0.5-1.7c-0.3-0.6-0.8-1-1.4-1.2c-0.3-0.1-0.5-0.2-0.8-0.2c-0.4-0.1-1-0.1-1.8-0.1h-4.8v11.2h2.3v-4.4l2.2,0
			l2.4,4.4h2.7L144.4,46.2z"/>
		<path class="st0" d="M166.6,48.4c-0.5,0.5-1.2,0.7-2,0.7c-0.6,0-1.2-0.2-1.6-0.5c-0.4-0.2-0.7-0.6-0.9-1c-0.2-0.3-0.3-0.6-0.4-0.9
			c-0.1-0.4-0.2-0.9-0.2-1.5c0-1,0.2-1.9,0.6-2.6c0.5-0.9,1.4-1.3,2.5-1.3c1.2,0,2.1,0.5,2.6,1.4c0.3,0.6,0.5,1.4,0.5,2.4
			C167.7,46.6,167.3,47.7,166.6,48.4z M168.7,41.1c-1-1.1-2.3-1.7-4.1-1.7c-1.7,0-3.1,0.5-4,1.6c-0.9,1-1.4,2.5-1.4,4.3
			c0,1.5,0.4,2.8,1.1,3.8c0.9,1.3,2.4,1.9,4.3,1.9c1.8,0,3.2-0.6,4.2-1.8c0.8-1,1.2-2.4,1.2-4C170,43.5,169.6,42.2,168.7,41.1z"/>
		<path class="st0" d="M121.6,43.3c-0.2-0.7-0.5-1.9-2.5-1.9c-1.1,0-2.8,0.7-2.8,3.9c0,2,0.8,3.8,2.8,3.8c1.3,0,2.2-0.7,2.5-2.1h2.3
			c-0.5,2.4-2,4.1-4.8,4.1c-3,0-5.1-2-5.1-5.8c0-3.9,2.2-5.9,5.1-5.9c3.3,0,4.7,2.3,4.8,3.9H121.6z"/>
		<path class="st0" d="M174.1,35.5h-1.2v3.2h-0.5v-3.2h-1.2v-0.4h2.9V35.5z"/>
		<path class="st0" d="M178.1,38.7h-0.5v-3l-1.1,3h-0.4l-1-3.1l0,3.1h-0.5v-3.6h0.7l0.9,2.6c0,0,0,0.1,0.1,0.3
			c0,0.1,0.1,0.2,0.1,0.2l0.2-0.6l0.9-2.5h0.6V38.7z"/>
		<g>
			<path class="st1" d="M5.5,35.7c0,0,0-0.1,0-0.1c0-0.1,0.1-0.2,0.1-0.3c0-0.1,0.1-0.2,0.1-0.3c0,0,0-0.1,0.1-0.1
				c0.6-1.4,1.3-2.8,2.1-4.2c0.1-0.2,0.2-0.5,0.3-0.7l-3.6,0L5.5,28c3-0.8,7.9-2.5,12.6-7l0.1,0h2.5l-3.2,6.9l5.2,0l-0.9,2.1l-5.2,0
				c0,0-2.4,4.8-3.2,8.3c-0.6,3.9,0,6.7,3.4,7.8c2.1,0.7,4.8,0.5,7.7-0.3c6.7-2.1,13.8-6.7,19-12.8c8.6-10,8.8-20.2,0.4-22.8
				c-5.4-1.7-13,0.2-20,4.4c8.8-5.7,18.4-8.3,25-6.2c1.2,0.4,2.3,0.9,3.2,1.6C46.7,3.8,38.8,0,30,0C13.4,0,0,13.4,0,30
				c0,6.1,1.8,11.8,5,16.5C3.8,43.6,4,39.9,5.5,35.7z"/>
			<path class="st1" d="M55.4,14.1c2,5.4-0.5,13.6-7.4,21.6C37.6,47.8,21.2,55.1,11.3,52.1c-1.2-0.4-2.3-0.9-3.2-1.6
				C13.6,56.4,21.4,60,30,60c16.6,0,30-13.4,30-30C60,24.2,58.3,18.7,55.4,14.1z"/>
		</g>
	</g>
</g>
</svg>
